<svg xmlns="http://www.w3.org/2000/svg" viewBox="0 0 64 64">
  <circle cx="32" cy="32" r="27" fill="#D8964A"/>
  <path fill="#B87835" d="M54 26c-9 3-18-4-16-14-4-3-9-5-15-5C8 7 5 20 5 32c0 15 12 27 27 27s27-12 27-27c0-2 0-4-1-6-1 0-3 0-4 0z"/>
  <circle cx="22" cy="25" r="4" fill="#4A2A17"/>
  <circle cx="38" cy="39" r="4" fill="#4A2A17"/>
  <circle cx="27" cy="44" r="3" fill="#4A2A17"/>
  <circle cx="44" cy="25" r="3" fill="#4A2A17"/>
  <circle cx="18" cy="38" r="3" fill="#4A2A17"/>
  <circle cx="34" cy="20" r="2.5" fill="#4A2A17"/>
</svg>
